<?xml version="1.0" encoding="UTF-8"?>
<!-- Generator: Adobe Illustrator 27.2.0, SVG Export Plug-In . SVG Version: 6.00 Build 0)  -->
<svg xmlns="http://www.w3.org/2000/svg" xmlns:xlink="http://www.w3.org/1999/xlink" version="1.1" id="Layer_1" x="0px" y="0px" viewBox="0 0 50 50" style="enable-background:new 0 0 50 50;" xml:space="preserve">
<style type="text/css">
	.st0{fill:none;}
	.st1{fill:#FFFFFF;}
</style>
<rect class="st0" width="50" height="50"></rect>
<g>
	<path class="st1" d="M34.47,14.98c-1.18,0-2.13,0.94-2.13,2.11c0,1.17,0.95,2.1,2.13,2.1c1.18,0,2.13-0.94,2.13-2.1   C36.6,15.92,35.64,14.98,34.47,14.98 M25,32.32c-3.27,0-5.91-2.62-5.91-5.85S21.73,20.6,25,20.6s5.91,2.63,5.91,5.86   C30.91,29.7,28.27,32.32,25,32.32 M25,17.44c-5.03,0-9.11,4.04-9.11,9.02c0,4.98,4.08,9.02,9.11,9.02s9.11-4.04,9.11-9.02   S30.03,17.44,25,17.44 M25,8.9c-4.82,0-5.42,0.02-7.32,0.1C11.24,9.3,7.66,12.84,7.37,19.22c-0.09,1.88-0.11,2.48-0.11,7.24   s0.03,5.37,0.11,7.24c0.3,6.38,3.87,9.92,10.33,10.21c1.89,0.09,2.5,0.1,7.32,0.1s5.42-0.02,7.32-0.1   c6.44-0.29,10.03-3.83,10.32-10.21c0.09-1.87,0.11-2.47,0.11-7.24s-0.03-5.37-0.11-7.24c-0.29-6.38-3.87-9.93-10.32-10.22   C30.42,8.92,29.82,8.9,25,8.9 M25,12.06c4.74,0,5.29,0.02,7.17,0.1c4.81,0.22,7.06,2.48,7.28,7.2c0.08,1.85,0.1,2.41,0.1,7.1   s-0.02,5.24-0.1,7.1c-0.22,4.72-2.46,6.99-7.28,7.19c-1.87,0.09-2.43,0.1-7.17,0.1s-5.29-0.02-7.17-0.1   c-4.82-0.22-7.06-2.48-7.27-7.19c-0.09-1.85-0.11-2.41-0.11-7.1s0.02-5.24,0.11-7.1c0.22-4.73,2.46-6.99,7.27-7.2   C19.7,12.09,20.26,12.06,25,12.06"></path>
</g>
</svg>
